<?xml version="1.0" standalone="no"?>
<!DOCTYPE svg PUBLIC "-//W3C//DTD SVG 1.1//EN" "http://www.w3.org/Graphics/SVG/1.1/DTD/svg11.dtd" >
<!--
2013-9-30: Created.
-->
<svg>
<metadata>
Created by iconfont
</metadata>
<defs>

<font id="iconfont" horiz-adv-x="1024" >
  <font-face
    font-family="iconfont"
    font-weight="500"
    font-stretch="normal"
    units-per-em="1024"
    ascent="896"
    descent="-128"
  />
    <missing-glyph />
    
    <glyph glyph-name="suoding" unicode="&#58880;" d="M385.150849 510.337662l-128.895105 0 0 150.377622q0 49.102897 19.436563 91.556444t53.706294 74.677323 80.815185 50.637363 101.786214 18.413586q49.102897 0 94.625375-18.413586t80.815185-50.637363 56.263736-74.677323 20.971029-91.556444l0-150.377622-123.78022 0 0 121.734266q0 64.447552-35.804196 99.74026t-97.182817 35.292707q-55.240759 0-88.999001-35.292707t-33.758242-99.74026l0-121.734266zM826.053946 448.959041q27.62038 0 47.568432-19.948052t19.948052-47.568432l0-317.122877q0-27.62038-9.718282-51.66034t-26.597403-41.942058-39.896104-28.131868-50.637363-10.22977l-516.603397 0q-27.62038 0-50.125874 10.22977t-38.361638 27.108891-24.551449 39.384615-8.695305 48.07992l0 324.283716q0 27.62038 19.436563 47.568432t47.056943 19.948052l61.378621 0 128.895105 0 255.744256 0 123.78022 0 61.378621 0z"  horiz-adv-x="1024" />

    
    <glyph glyph-name="shangchuan" unicode="&#58979;" d="M821.76 416.512c0 0-6.272 206.4-174.4 247.424S398.208 527.808 396.544 522.752C394.88 517.696 386.624 520 386.624 520c-13.44 12.736-72.704 41.984-134.976 4.48-62.208-37.504-39.68-108.736-39.68-108.736S119.744 423.232 72.448 280.832c-47.232-142.528 118.464-182.912 118.464-182.912l278.144 0 0 151.616-55.68 0L408.512 249.536 404.736 249.536l0 0.256c-3.2 0-5.76 2.56-5.76 5.824 0 1.92 1.024 3.584 2.56 4.672l113.984 119.872c1.6 1.792 3.84 3.008 6.464 3.008 2.688 0 5.056-1.344 6.656-3.328l113.152-118.912c0.192-0.128 0.384-0.32 0.576-0.512l1.088-1.152-0.384 0c0.576-1.024 0.96-1.92 0.96-3.136 0-3.584-2.88-6.528-6.528-6.528-0.128 0-0.128 0.128-0.256 0.128l0-0.256L575.936 249.472l0-151.616 252.48 0c0 0 120.384 30.144 131.008 154.432C970.176 376.576 821.76 416.512 821.76 416.512z"  horiz-adv-x="1024" />

    
    <glyph glyph-name="shezhi2" unicode="&#58895;" d="M895.906 313.315c-84.577-22.042-147.18-99.073-147.18-190.461 0-17.456 2.324-34.783 6.846-51.495l-101.906-58.288c-36.595 37.301-87.21 59.197-140.646 59.197-53.435 0-104.051-21.901-140.641-59.197l-101.906 58.283c4.521 16.716 6.846 34.045 6.845 51.499 0 91.381-62.607 168.418-147.184 190.46l0 113.846c84.577 22.041 147.184 99.075 147.184 190.461 0 17.461-2.324 34.784-6.845 51.496l101.906 58.288c36.59-37.296 87.206-59.19 140.641-59.191 53.436 0 104.051 21.895 140.646 59.191l101.901-58.288c-4.52-16.712-6.845-34.039-6.845-51.496 0-91.385 62.607-168.419 147.184-190.461l0-113.846M945.517 270.039l0 200.397c-81.288 0-147.185 65.897-147.185 147.184 0 26.604 7.058 51.553 19.406 73.089l-176.934 101.204c-25.382-44.269-73.099-74.097-127.783-74.097-54.681 0-102.402 29.827-127.778 74.097l-176.934-101.204c12.343-21.532 19.407-46.486 19.406-73.089 0-81.288-65.897-147.184-147.185-147.184l0-200.397c81.289 0 147.185-65.897 147.185-147.185 0-26.601-7.059-51.552-19.406-73.089l176.934-101.204c25.376 44.27 73.099 74.096 127.778 74.096 54.685 0 102.407-29.825 127.784-74.096l176.935 101.205c-12.347 21.537-19.406 46.488-19.406 73.089 0 81.288 65.896 147.184 147.184 147.184l0 0 0 0zM389.002 370.234c0 68.389 55.632 124.025 124.019 124.025 68.389 0 124.024-55.636 124.024-124.025 0-68.38-55.637-124.018-124.024-124.018-68.387-0.001-124.019 55.636-124.019 124.018l0 0zM587.433 370.234c0 41.036-33.381 74.416-74.413 74.416-41.033 0-74.413-33.38-74.413-74.416 0-41.026 33.385-74.412 74.413-74.412 41.032 0 74.413 33.38 74.413 74.412l0 0zM587.433 370.234z"  horiz-adv-x="1024" />

    
    <glyph glyph-name="icon" unicode="&#58933;" d="M639.616004 512.083144 639.616004 640.107959l-255.859295 0 0-128.024815-63.924915 0 0-383.910717 383.867738 0L703.699532 512.083144 639.616004 512.083144 639.616004 512.083144zM447.745069 576.104249l127.929648 0.016373 0.048095-64.014966c0 0.12382-128.412648 0-127.977743 0L447.745069 576.104249zM639.487068 192.555783 383.745453 192.555783 383.745453 444.331064l255.741615 0L639.487068 192.555783 639.487068 192.555783zM489.486752 312.34196l0-66.319451 45.64662 0 0 66.491367c13.747095 7.912204 22.998807 22.706141 22.998807 39.651069 0 25.27464-20.585851 45.77044-45.975101 45.77044-25.388227 0-45.971008-20.494777-45.971008-45.77044C466.18607 335.09722 475.572858 320.211185 489.486752 312.34196L489.486752 312.34196zM489.486752 312.34196M782.246469 655.472901c36.608779-36.608779 64.905242-79.291904 84.184331-126.794801 18.651802-45.9004 28.084639-94.451162 28.010961-144.263661 0.069585-49.808406-9.359158-98.363262-28.015054-144.260591-19.279089-47.50392-47.569412-90.189092-84.175121-126.793778-36.606733-36.606733-79.294974-64.900126-126.797871-84.179214-45.896306-18.654872-94.451162-28.084639-144.259568-28.015054-49.808406-0.069585-98.365308 9.358135-144.259568 28.015054-47.50392 19.277042-90.192162 47.569412-126.800941 84.179214-36.604686 36.603663-64.895009 79.289857-84.173075 126.793778-18.656919 45.895283-28.084639 94.452185-28.015054 144.260591-0.072655 49.812499 9.359158 98.363262 28.010961 144.263661 19.280112 47.501874 47.575552 90.186022 84.183308 126.793778 36.604686 36.604686 79.286788 64.899102 126.789685 84.178191 45.9004 18.651802 94.451162 28.084639 144.263661 28.011984 49.813522 0.072655 98.363262-9.360182 144.264685-28.011984C702.959681 720.373027 745.642806 692.077587 782.246469 655.472901M827.505255 700.731688C652.829957 875.406986 369.558335 875.406986 194.883037 700.730665 20.202623 526.05025 20.201599 242.779651 194.876897 68.104353c174.681438-174.681438 457.952037-174.679391 632.632451 0C1002.18567 242.779651 1002.18567 526.05025 827.505255 700.731688L827.505255 700.731688 827.505255 700.731688z"  horiz-adv-x="1024" />

    
    <glyph glyph-name="yitingzhi" unicode="&#59047;" d="M512 760.8c254.08 0 460.8-206.72 460.8-460.8s-206.72-460.8-460.8-460.8S51.2 45.92 51.2 300 257.92 760.8 512 760.8M512 812C229.248 812 0 582.752 0 300s229.248-512 512-512 512 229.248 512 512S794.752 812 512 812L512 812zM741.312 111.648c0-16-12.928-28.992-28.928-28.992L311.616 82.656c-16 0-28.928 12.992-28.928 28.992L282.688 512.352c0 16 12.928 28.864 28.928 28.864l400.768 0c16 0 28.928-12.864 28.928-28.864L741.312 111.648z"  horiz-adv-x="1024" />

    
    <glyph glyph-name="04f" unicode="&#58891;" d="M675.319 496.831c0 89.577-72.87 162.447-162.423 162.447-89.577 0-162.447-72.87-162.447-162.447 0-89.554 72.869-162.422 162.447-162.423 89.554 0 162.423 72.87 162.423 162.423zM512.895 894.166c-281.804 0-511.083-229.279-511.083-511.083 0-122.923 44.254-241.709 124.634-334.472 97.206-112.252 238.072-176.611 386.45-176.611 281.804 0 511.083 229.279 511.083 511.083s-229.28 511.083-511.083 511.083zM811.621 33.804c-24.17 145.976-149.303 251.929-297.538 251.929-153.914 0-282.778-115.174-299.724-267.924l-48.389 5.371c15.463 139.243 111.121 251.295 237.919 293.211-61.078 37.031-102.115 103.943-102.115 180.44 0 116.41 94.711 211.122 211.121 211.122s211.098-94.711 211.098-211.121c0-76.089-40.588-142.694-101.118-179.846 121.573-39.394 214.872-143.034 236.755-275.244l-48.009-7.938z"  horiz-adv-x="1024" />

    
    <glyph glyph-name="sucaiku" unicode="&#58909;" d="M1024 192l0-192c0-70.4-57.6-128-128-128L128-128c-70.4 0-128 57.6-128 128l0 192 128 576c19.2 64 57.6 128 128 128l512 0c70.4 0 108.8-64 128-128L1024 192C1024 192 1024 192 1024 192zM768 761.6 768 761.6 256 768l0-6.4L147.2 192 384 192l0 0 0 0 0-64c0-38.4 25.6-64 64-64l128 0c38.4 0 64 25.6 64 64l0 64 236.8 0L768 761.6zM256 384c0 38.4 25.6 64 64 64l384 0c38.4 0 64-25.6 64-64s-25.6-64-64-64L320 320C281.6 320 256 345.6 256 384zM640 512 384 512C345.6 512 320 537.6 320 576c0 38.4 25.6 64 64 64l256 0c38.4 0 64-25.6 64-64C704 537.6 678.4 512 640 512z"  horiz-adv-x="1024" />

    
    <glyph glyph-name="yuyinbobao02" unicode="&#58897;" d="M467.48618 451.533093m-20.556175 0a20.088 20.088 0 1 0 41.11235 0 20.088 20.088 0 1 0-41.11235 0ZM921.456532 557.463704c-22.401196 52.961212-54.465472 100.521414-95.304599 141.360542-40.839127 40.839127-88.400353 72.904427-141.360542 95.304599-54.840002 23.195282-113.085568 34.95614-173.117826 34.95614-60.033281 0-118.2768-11.760858-173.116803-34.95614-52.961212-22.401196-100.521414-54.466496-141.360542-95.304599-40.839127-40.839127-72.904427-88.399329-95.304599-141.360542-23.195282-54.838979-34.95614-113.083521-34.95614-173.116803s11.760858-118.2768 34.95614-173.116803c22.401196-52.960189 54.466496-100.520391 95.304599-141.360542 40.839127-40.839127 88.399329-72.903403 141.360542-95.304599 54.838979-23.195282 113.083521-34.95614 173.116803-34.95614 60.032258 0 118.277824 11.760858 173.117826 34.95614 52.960189 22.401196 100.520391 54.465472 141.360542 95.304599s72.903403 88.400353 95.304599 141.360542c23.195282 54.840002 34.95614 113.084545 34.95614 173.116803S944.651814 502.624724 921.456532 557.463704zM511.673565-29.691997c-228.301659 0-414.038898 185.737238-414.038898 414.038898S283.371906 798.385798 511.673565 798.385798c228.302683 0 414.038898-185.737238 414.038898-414.038898S739.976248-29.691997 511.673565-29.691997zM668.829861 328.016964c-1.211595 41.964764-30.303166 69.938885-33.616632 72.990385l-20.799722-22.578228c0.228197-0.211824 22.86987-21.490453 23.728424-51.297316 0.548492-19.019169-7.619538-37.391608-24.278963-54.606689l22.061458-21.347191C658.554844 274.562519 669.62497 300.414303 668.829861 328.016964zM547.947723 302.173366l0 31.612998L601.452311 333.786365l-53.504588 116.348891 0 24.242124c0 31.476899-14.917758 61.001329-42.006719 83.133396-22.278399 18.203594-50.961672 29.543873-74.934666 29.641087l-0.034792 0.001023-0.554632-0.001023c-47.586808-0.192382-116.444059-44.094264-116.444059-112.774483l0-180.060959c0-68.819388 69.13866-112.759133 116.735701-112.775506l0.001023 5.076622 0.00307-5.076622 0.001023 10.386558 0.004093-10.386558c0.00614 0 0.00921 0 0.01535 0 50.208519 0.022513 110.910019 21.923312 116.762307 83.573417l1.595334 16.800641-69.301366 0 0 20.258393L547.947723 302.173366zM512.7552 251.215788c-4.827959-11.131525-13.58439-19.928888-26.455535-26.654057-21.259186-11.107989-45.948495-12.317537-55.584969-12.32163-16.97051 0.007163-38.763862 8.911974-55.523571 22.687722-13.923104 11.444657-30.519084 31.036877-30.519084 59.388599l0 180.060959c0 28.351722 16.59598 47.944965 30.519084 59.388599 16.757662 13.774725 38.551014 22.679535 55.521524 22.686698 30.510898-0.014326 86.533842-31.182186 86.533842-82.07632l0-30.962176 36.296671-78.929654-36.296671 0 0-31.612998-68.156286 0 0-81.656765L512.7552 251.214764zM673.722288 443.645448l-20.787442-22.589484c0.412392-0.379647 41.267892-38.584784 42.824341-92.570325 0.99056-34.302247-13.777795-67.474764-43.894719-98.594529l22.061458-21.349237c36.087916 37.290301 53.758368 77.94421 52.520167 120.828926C724.519208 396.151761 675.795507 441.738006 673.722288 443.645448z"  horiz-adv-x="1024" />

    
    <glyph glyph-name="erweima" unicode="&#59208;" d="M192 512l128 0L320 640 192 640 192 512zM64-64l384 0L448 320 64 320 64-64zM128 256l256 0 0-256L128 0 128 256zM192 64l128 0 0 128L192 192 192 64zM512 768l0-384 384 0L896 768 512 768zM832 448 576 448 576 704l256 0L832 448zM832 192l-128 0L704 320 576 320 512 320l0-128 0-256 64 0 0 256 64 0 0-64 192 0 64 0L896 320l-64 0L832 192zM64 384l384 0L448 768 64 768 64 384zM128 704l256 0 0-256L128 448 128 704zM768 640l-128 0 0-128 128 0L768 640zM832-64l64 0 0 128-64 0L832-64zM704-64l64 0 0 128-64 0L704-64z"  horiz-adv-x="1024" />

    
    <glyph glyph-name="tuichuquanping" unicode="&#59293;" d="M576 218.368 576-32C576-49.664 590.336-64 608-64s32 14.336 32 32l0 180.672 203.456-203.52c11.968-11.968 31.36-11.968 43.392 0 11.968 12.032 11.968 31.424 0 43.392L683.328 192 864 192c17.664 0 32 14.336 32 32S881.664 256 864 256L613.632 256C590.272 256 576 243.968 576 218.368zM348.352 256 97.984 256c-17.664 0-32-14.336-32-32s14.336-32 32-32l180.672 0-203.52-203.456c-11.968-11.968-11.968-31.36 0-43.392 12.032-11.968 31.424-11.968 43.392 0l203.456 203.52L321.984-32c0-17.664 14.336-32 32-32s32 14.336 32 32l0 250.368C385.984 243.968 371.776 256 348.352 256zM613.632 448 864 448C881.664 448 896 462.336 896 480S881.664 512 864 512l-180.672 0 203.52 203.456c11.968 11.968 11.968 31.36 0 43.392-12.032 11.968-31.424 11.968-43.392 0L640 555.328 640 736C640 753.664 625.664 768 608 768S576 753.664 576 736l0-250.368C576 460.032 590.272 448 613.632 448zM385.984 485.632 385.984 736c0 17.664-14.336 32-32 32s-32-14.336-32-32l0-180.672-203.456 203.52c-11.968 11.968-31.36 11.968-43.392 0-11.968-12.032-11.968-31.424 0-43.392L278.656 512 97.984 512c-17.664 0-32-14.336-32-32S80.32 448 97.984 448l250.368 0C371.776 448 385.984 460.032 385.984 485.632z"  horiz-adv-x="1024" />

    
    <glyph glyph-name="quanping" unicode="&#58976;" d="M119.579981 776.439974l185.746448 0c16.074094 0 29.283953 13.134135 29.283953 29.322839 0 16.303314-13.113669 29.321816-29.283953 29.321816l-215.107149 0c-8.037047 0-15.34857-3.282766-20.655436-8.590656-5.383614-5.307889-8.629541-12.619412-8.629541-20.694321L60.934303 590.693526c0-16.074094 13.134135-29.283953 29.321816-29.283953 16.303314 0 29.322839 13.114692 29.322839 29.283953L119.578957 776.439974zM901.51076 776.439974 715.764312 776.439974c-16.093537 0-29.283953 13.134135-29.283953 29.322839 0 16.303314 13.114692 29.321816 29.283953 29.321816l215.107149 0c8.037047 0 15.34857-3.282766 20.655436-8.590656 5.384637-5.307889 8.629541-12.619412 8.629541-20.694321L960.156438 590.693526c0-16.074094-13.134135-29.283953-29.321816-29.283953-16.303314 0-29.322839 13.114692-29.322839 29.283953L901.511783 776.439974zM119.579981-5.489782l185.746448 0c16.074094 0 29.283953-13.133112 29.283953-29.321816 0-16.303314-13.113669-29.321816-29.283953-29.321816l-215.107149 0c-8.037047 0-15.34857 3.28379-20.655436 8.590656-5.383614 5.306866-8.629541 12.619412-8.629541 20.694321L60.934303 180.255643c0 16.075117 13.134135 29.286 29.321816 29.286 16.303314 0 29.322839-13.114692 29.322839-29.286L119.578957-5.489782zM901.51076-5.489782 715.764312-5.489782c-16.093537 0-29.283953-13.133112-29.283953-29.321816 0-16.303314 13.114692-29.321816 29.283953-29.321816l215.107149 0c8.037047 0 15.34857 3.28379 20.655436 8.590656 5.384637 5.306866 8.629541 12.619412 8.629541 20.694321L960.156438 180.255643c0 16.075117-13.134135 29.286-29.321816 29.286-16.303314 0-29.322839-13.114692-29.322839-29.286L901.511783-5.489782z"  horiz-adv-x="1024" />

    
    <glyph glyph-name="fenxiang" unicode="&#58902;" d="M731.853244 263.33992c-45.715181 0-87.117127-18.782785-116.91478-49.028647L446.790836 323.618794c7.356548 18.630313 11.400654 38.917358 11.400654 60.132542 0 24.076348-5.208629 46.958498-14.557554 67.578118l133.303029 96.266507c29.262464-26.948769 68.303642-43.433208 111.13003-43.433208 90.543156 0 164.196643 73.653487 164.196643 164.196643S778.61015 832.566272 688.066995 832.566272s-164.196643-73.66372-164.196643-164.207899c0-24.076348 5.208629-46.957475 14.556531-67.577095l-133.303029-96.266507c-29.262464 26.948769-68.303642 43.433208-111.129007 43.433208-90.543156 0-164.196643-73.653487-164.196643-164.196643s73.653487-164.196643 164.196643-164.196643c45.721321 0 87.129406 18.787902 116.928083 49.040926l168.140465-109.303428c-7.360641-18.634406-11.406794-38.928614-11.406794-60.149938 0-90.543156 73.653487-164.196643 164.196643-164.196643s164.196643 73.653487 164.196643 164.196643S822.396399 263.33992 731.853244 263.33992zM688.066995 766.88741c54.326303 0 98.517781-44.202735 98.517781-98.529037 0-54.326303-44.192501-98.517781-98.517781-98.517781-32.122605 0-60.699454 15.452947-78.695317 39.314401-0.341784 0.535189-0.695848 1.064238-1.072425 1.585101-0.379647 0.527003-0.775666 1.034563-1.180895 1.531889-11.070126 15.928784-17.569144 35.261085-17.569144 56.086389C589.549214 722.684676 633.740692 766.88741 688.066995 766.88741zM377.292995 331.20354c-0.254803-0.360204-0.508583-0.721431-0.751107-1.094938-0.231267-0.356111-0.446162-0.716314-0.662079-1.077541-17.692964-26.391067-47.791469-43.798529-81.884962-43.798529-54.326303 0-98.517781 44.192501-98.517781 98.517781 0 54.326303 44.192501 98.517781 98.517781 98.517781 54.326303 0 98.517781-44.192501 98.517781-98.517781C392.512628 364.444619 386.9264 346.421126 377.292995 331.20354zM731.853244 0.625496c-54.326303 0-98.517781 44.192501-98.517781 98.517781 0 19.455097 5.669116 37.609573 15.440667 52.900837 0.176009 0.254803 0.360204 0.500397 0.530073 0.762363 0.162706 0.25071 0.312108 0.506537 0.467651 0.760317 17.666358 26.555819 47.860031 44.094264 82.080413 44.094264 54.326303 0 98.517781-44.192501 98.517781-98.517781C830.371024 44.816974 786.178523 0.625496 731.853244 0.625496z"  horiz-adv-x="1024" />

    
    <glyph glyph-name="weibiaoti545" unicode="&#58929;" d="M426.053024 564.373067l0 169.619142-331.490833-300.725132 331.490833-300.789601L426.053024 314.36606c92.097558 0 376.594077 0 499.373425-281.257755l0 31.251771C925.426449 189.363068 802.629705 590.985168 426.053024 564.373067z"  horiz-adv-x="1024" />

    
    <glyph glyph-name="7chexiao" unicode="&#58904;" d="M609.206 499.344H193.504l201.87 199.152c17.787 17.787 17.787 43.185 0 60.973s-41.555 18.641-59.42 0.778L62.857 493.443c-17.787-17.787-17.787-41.399 0-59.186L336.03 167.142c17.787-17.787 41.555-17.787 59.42 0.078 17.787 17.787 17.787 41.166 0 58.953L193.502 421.674h415.702c166.219 0 311.155-129.712 311.155-290.029v-41.555c0-23.769 15.069-41.555 38.836-41.555s38.836 17.787 38.836 41.555v41.555c0 207.852-175.073 367.7-388.828 367.7z"  horiz-adv-x="1024" />

    
    <glyph glyph-name="changjing" unicode="&#58890;" d="M116.509 664.752h790.984v-47.429h-790.985v47.429zM116.509 424.069h790.984v-47.428h-790.985v47.428zM116.509 185.757h596.8v-47.428h-596.8v47.428z"  horiz-adv-x="1024" />

    
    <glyph glyph-name="shengyin" unicode="&#58911;" d="M893.238787 894.519166L618.143258 764.104685v-349.888457a199.161275 199.161275 0 0 1-113.619661 35.467769c-110.441287 0-200.295377-89.846866-200.295377-200.302601 0-110.441287 89.854089-200.295377 200.295377-200.295376 110.448511 0 200.3026 89.846866 200.3026 200.295376V709.26328l225.549006 106.923404L893.238787 894.519166zM504.53082 135.776182c-62.64287 0-113.612438 50.969568-113.612438 113.612438 0 62.650094 50.969568 113.619662 113.612438 113.619662 62.650094 0 113.619662-50.969568 113.619662-113.619662-0.007224-62.64287-50.969568-113.612438-113.619662-113.612438zM311.321774 435.699149l-25.867634 59.645086c-46.425937-20.132112-82.233214-57.138504-100.826705-104.20734-18.59349-47.076059-17.748332-98.565725 2.391005-144.991662l59.645085 25.874858a123.653212 123.653212 0 0 0-1.57474 95.235655 123.667659 123.667659 0 0 0 66.232989 68.443403zM200.837145 545.699798l-25.867634 59.645086C31.205858 542.983733-35.034354 375.288365 27.297902 231.531935l59.645085 25.86041c-48.080137 110.881926 3.019456 240.21287 113.894158 288.307453zM848.0842 240.583078l-61.429309-21.302332c22.486999-64.838838-11.962246-135.88273-76.786637-158.376952l21.302332-61.414862c98.702973 34.232537 151.14615 142.391174 116.913614 241.094146zM1003.83177 233.648443l-61.429309-21.302332c39.606879-114.197548-21.063954-239.32437-135.239832-278.916802l21.302332-61.429309c148.047235 51.345194 226.712002 213.579537 175.366809 361.648443z"  horiz-adv-x="1024" />

    
    <glyph glyph-name="dongtaiwenben" unicode="&#59427;" d="M741.828432 399.58393c0 7.730055-6.054903 13.95278-13.505595 13.95278L457.69007 413.53671c-7.423063 0-13.506619-6.251378-13.506619-13.95278l0-27.90556c0-7.701402 6.111185-13.95278 13.506619-13.95278L728.321814 357.72559c7.478322 0 13.505595 6.251378 13.505595 13.95278L741.827409 399.58393 741.828432 399.58393M904.18517 832.12625 281.799084 832.12625c-29.886681 0-54.109362-25.003464-54.109362-55.812143l0-167.435407L119.441323 608.8787c-29.859052 0-54.109362-25.003464-54.109362-55.812143l0-558.119387c0-30.836309 24.25031-55.812143 54.109362-55.812143L227.689722-60.864974c0.082888 0 0.166799 0 0.278339 0 7.534604-1.255597 23.134907 0 53.831023 0l574.368466 0c14.929014 0 27.068496 12.474103 27.068496 27.850301 0 15.46011-12.139481 27.934213-27.068496 27.934213L308.866556-5.080459c-26.426883 0-27.068496-0.11154-27.068496 27.934213l0 725.554794c0 15.432481 12.139481 27.90556 27.068496 27.90556l568.277748 0c14.957667 0 27.040866-12.474103 27.040866-27.90556l0-809.272497c29.943986 0 54.138014 24.975834 54.138014 55.784514L958.323185 776.314107C958.323185 807.122787 934.129156 832.12625 904.18517 832.12625L904.18517 832.12625M227.689722-5.081483l-81.178881 0c-14.957667 0-27.068496 12.474103-27.068496 27.934213L119.442346 525.159974c0 15.432481 12.110829 27.90556 27.068496 27.90556l81.178881 0L227.689722-5.081483 227.689722-5.081483M728.321814 246.101303 457.69007 246.101303c-7.423063 0-13.506619-6.28003-13.506619-13.926174l0-27.933189c0-7.701402 6.111185-13.981433 13.506619-13.981433L728.321814 190.260507c7.478322 0 13.505595 6.279007 13.505595 13.981433l0 27.933189C741.828432 239.821273 735.77353 246.101303 728.321814 246.101303L728.321814 246.101303M741.828432 567.019337c0 7.730055-6.054903 13.95278-13.505595 13.95278L457.69007 580.972117c-7.423063 0-13.506619-6.251378-13.506619-13.95278l0-27.90556c0-7.701402 6.111185-13.95278 13.506619-13.95278L728.321814 525.160997c7.478322 0 13.505595 6.251378 13.505595 13.95278L741.827409 567.019337 741.828432 567.019337M741.828432 567.019337 741.828432 567.019337z"  horiz-adv-x="1024" />

    
    <glyph glyph-name="page" unicode="&#59149;" d="M874.338462 521.846154H653.784615c-51.2 0-82.707692 31.507692-82.707692 82.707692V825.107692c0 17.723077-13.784615 31.507692-31.507692 31.507693H212.676923C161.476923 856.615385 118.153846 813.292308 118.153846 762.092308v-756.184616c0-51.2 43.323077-94.523077 94.523077-94.523077h598.646154c51.2 0 94.523077 43.323077 94.523077 94.523077V490.338462c0 17.723077-13.784615 31.507692-31.507692 31.507692z m25.6 120.123077L691.2 850.707692c-3.938462 3.938462-11.815385 5.907692-17.723077 5.907693-11.815385 0-23.630769-9.846154-23.630769-21.661539v-167.384615c0-35.446154 31.507692-66.953846 66.953846-66.953846h167.384615c11.815385 0 21.661538 11.815385 21.661539 23.630769 0 5.907692-1.969231 13.784615-5.907692 17.723077z"  horiz-adv-x="1024" />

    
    <glyph glyph-name="material" unicode="&#58989;" d="M255.9 576h256.1v-64h-256.1zM896 256v512h-256v64h-320l-192-192v-384h-64v-192c0-70.7 57.3-128 128-128h640c70.7 0 128 57.3 128 128v192h-64zM832 704v-448h-64v448h64zM704 704v-448h-64v448h64zM192 613.5l26.5 26.5h101.5v101.5l26.5 26.5h229.1v-512h-383.6v357.5zM640 64h-256v64h256v-64zM255.3 448h256.1v-64h-256.1z"  horiz-adv-x="1024" />

    
    <glyph glyph-name="bofang" unicode="&#58908;" d="M780.8 420.266667L285.866667 727.466667c-27.733333 17.066667-64-4.266667-64-36.266667v-614.4c0-32 36.266667-53.333333 64-36.266667l492.8 307.2c29.866667 14.933333 29.866667 57.6 2.133333 72.533334z"  horiz-adv-x="1024" />

    
    <glyph glyph-name="changjingmoren" unicode="&#58921;" d="M448 725.333333H213.333333c-23.466667 0-42.666667-19.2-42.666666-42.666666v-234.666667c0-23.466667 19.2-42.666667 42.666666-42.666667h234.666667c23.466667 0 42.666667 19.2 42.666667 42.666667V682.666667c0 23.466667-19.2 42.666667-42.666667 42.666666z m0-277.333333H213.333333V682.666667h234.666667v-234.666667zM810.666667 725.333333H576c-23.466667 0-42.666667-19.2-42.666667-42.666666v-234.666667c0-23.466667 19.2-42.666667 42.666667-42.666667h234.666667c23.466667 0 42.666667 19.2 42.666666 42.666667V682.666667c0 23.466667-19.2 42.666667-42.666666 42.666666z m0-277.333333H576V682.666667h234.666667v-234.666667zM448 362.666667H213.333333c-23.466667 0-42.666667-19.2-42.666666-42.666667v-234.666667c0-23.466667 19.2-42.666667 42.666666-42.666666h234.666667c23.466667 0 42.666667 19.2 42.666667 42.666666V320c0 23.466667-19.2 42.666667-42.666667 42.666667z m0-277.333334H213.333333V320h234.666667v-234.666667zM810.666667 362.666667H576c-23.466667 0-42.666667-19.2-42.666667-42.666667v-234.666667c0-23.466667 19.2-42.666667 42.666667-42.666666h234.666667c23.466667 0 42.666667 19.2 42.666666 42.666666V320c0 23.466667-19.2 42.666667-42.666666 42.666667z m0-277.333334H576V320h234.666667v-234.666667z"  horiz-adv-x="1024" />

    
    <glyph glyph-name="yulan" unicode="&#59321;" d="M512.122 623.854c-247.216 0-412.027-247.216-412.027-247.216s164.811-247.216 412.027-247.216c247.216 0 412.027 247.216 412.027 247.216S759.217 623.854 512.122 623.854z m0-410.207c-90.537 0-163.962 73.424-163.962 163.962s73.424 163.962 163.962 163.962c90.537 0 163.962-73.424 163.962-163.962-0.122-90.658-73.424-163.962-163.962-163.962z m-82.406 163.476c0-21.482 8.86-42.841 24.03-58.012s36.53-24.03 58.012-24.03 42.841 8.86 58.012 24.03c15.17 15.17 24.03 36.53 24.03 58.012s-8.86 42.841-24.03 58.012c-15.17 15.17-36.53 24.03-58.012 24.03s-42.841-8.86-58.012-24.03c-15.17-15.292-24.03-36.53-24.03-58.012z"  horiz-adv-x="1024" />

    
    <glyph glyph-name="wenzitishi" unicode="&#59039;" d="M768 480h-512c-16 0-32-12.8-32-32s12.8-32 32-32h512c16 0 32 12.8 32 32s-12.8 32-32 32zM896 736h-768c-35.2 0-64-28.8-64-64v-448c0-35.2 28.8-64 64-64h108.8l128-128 128 128h403.2c35.2 0 64 28.8 64 64v448c0 35.2-28.8 64-64 64zM896 256c0-19.2-12.8-32-32-32h-406.4l-96-96-96 96h-105.6c-19.2 0-32 12.8-32 32v384c0 19.2 12.8 32 32 32h704c19.2 0 32-12.8 32-32v-384z"  horiz-adv-x="1024" />

    
    <glyph glyph-name="chexiao" unicode="&#59033;" d="M135.168 619.52h462.848c176.128 0 317.44-141.312 317.44-317.44s-141.312-317.44-317.44-317.44H389.12c-12.288 0-20.48-8.192-20.48-20.48s8.192-20.48 20.48-20.48h208.896c198.656 0 358.4 159.744 358.4 358.4s-159.744 358.4-358.4 358.4h-462.848l139.264 139.264c8.192 8.192 8.192 20.48 0 28.672-8.192 8.192-20.48 8.192-28.672 0l-174.08-174.08c-8.192-8.192-8.192-20.48 0-28.672l174.08-174.08c8.192-8.192 20.48-8.192 28.672 0 8.192 8.192 8.192 20.48 0 28.672l-139.264 139.264z"  horiz-adv-x="1024" />

    
    <glyph glyph-name="baocun" unicode="&#59037;" d="M768 793.6v-307.2c0-34.816-26.624-61.44-61.44-61.44h-389.12c-34.816 0-61.44 26.624-61.44 61.44v307.2h-92.16c-34.816 0-61.44-26.624-61.44-61.44V25.6c0-34.816 26.624-61.44 61.44-61.44h706.56c34.816 0 61.44 26.624 61.44 61.44v104.448c0 12.288 8.192 20.48 20.48 20.48s20.48-8.192 20.48-20.48v-104.448c0-57.344-45.056-102.4-102.4-102.4H163.84c-57.344 0-102.4 45.056-102.4 102.4v706.56c0 57.344 45.056 102.4 102.4 102.4h706.56c57.344 0 102.4-45.056 102.4-102.4v-417.792c0-12.288-8.192-20.48-20.48-20.48s-20.48 8.192-20.48 20.48v417.792c0 34.816-26.624 61.44-61.44 61.44h-102.4z m-471.04 0v-307.2c0-10.24 8.192-20.48 20.48-20.48h389.12c10.24 0 20.48 8.192 20.48 20.48v307.2h-430.08z m301.056-92.16c0 12.288 8.192 20.48 20.48 20.48s20.48-8.192 20.48-20.48v-122.88c0-12.288-8.192-20.48-20.48-20.48s-20.48 8.192-20.48 20.48v122.88z"  horiz-adv-x="1024" />

    
    <glyph glyph-name="youduiqi" unicode="&#59085;" d="M174.08 670.72c-12.288 0-20.48 8.192-20.48 20.48s8.192 20.48 20.48 20.48h675.84c12.288 0 20.48-8.192 20.48-20.48s-8.192-20.48-20.48-20.48h-675.84z m266.24-143.36c-12.288 0-20.48 8.192-20.48 20.48s8.192 20.48 20.48 20.48h409.6c12.288 0 20.48-8.192 20.48-20.48s-8.192-20.48-20.48-20.48h-409.6z m-266.24-143.36c-12.288 0-20.48 8.192-20.48 20.48s8.192 20.48 20.48 20.48h675.84c12.288 0 20.48-8.192 20.48-20.48s-8.192-20.48-20.48-20.48h-675.84z m266.24-163.84c-12.288 0-20.48 8.192-20.48 20.48s8.192 20.48 20.48 20.48h409.6c12.288 0 20.48-8.192 20.48-20.48s-8.192-20.48-20.48-20.48h-409.6z m-266.24-163.84c-12.288 0-20.48 8.192-20.48 20.48s8.192 20.48 20.48 20.48h675.84c12.288 0 20.48-8.192 20.48-20.48s-8.192-20.48-20.48-20.48h-675.84z"  horiz-adv-x="1024" />

    
    <glyph glyph-name="xieti" unicode="&#59136;" d="M460.8 97.28l153.6 573.44h81.92v40.96h-204.8v-40.96h79.872l-153.6-573.44h-90.112v-40.96h204.8v40.96h-71.68z"  horiz-adv-x="1024" />

    
    <glyph glyph-name="xiahuaxian" unicode="&#59137;" d="M698.368 691.2c0 12.288 8.192 20.48 20.48 20.48s20.48-8.192 20.48-20.48v-276.48c0-131.072-104.448-235.52-235.52-235.52s-235.52 106.496-235.52 235.52V691.2c0 12.288 8.192 20.48 20.48 20.48s20.48-8.192 20.48-20.48v-276.48c0-108.544 88.064-194.56 194.56-194.56s194.56 88.064 194.56 194.56V691.2z m-401.408-634.88c-12.288 0-20.48 8.192-20.48 20.48s8.192 20.48 20.48 20.48h409.6c12.288 0 20.48-8.192 20.48-20.48s-8.192-20.48-20.48-20.48h-409.6z"  horiz-adv-x="1024" />

    
    <glyph glyph-name="zuhe" unicode="&#58951;" d="M839.036 765.542h-654.072c-30.102 0-54.506-24.404-54.506-54.506v-654.072c0-30.102 24.404-54.506 54.506-54.506h654.072c30.102 0 54.506 24.404 54.506 54.506v654.072c0 30.102-24.404 54.506-54.506 54.506zM839.036 84.214c0-15.050-12.196-27.249-27.249-27.249h-598.721c-15.050 0-27.249 12.196-27.249 27.249v598.721c0 15.050 12.196 27.249 27.249 27.249h598.721c15.049 0 27.249-12.196 27.249-27.249v-598.721zM730.028 474.361h-127.324v126.817c0 30.091-24.402 54.499-54.501 54.499h-252.755c-30.098 0-54.501-24.401-54.501-54.499v-253.89c0-30.091 24.402-54.499 54.501-54.499h127.324v-126.817c0-30.091 24.402-54.499 54.501-54.499h252.755c30.098 0 54.501 24.401 54.501 54.499v253.89c0 30.091-24.402 54.499-54.501 54.499zM323.36 347.863c-15.050 0-27.251 12.207-27.251 27.26v197.694c0 15.055 12.201 27.26 27.251 27.26h196.928c15.051 0 27.251-12.207 27.251-27.26v-98.458h-70.267c-30.098 0-54.501-24.401-54.501-54.499v-71.998h-99.411zM547.539 418.76v-43.638c0-15.055-12.202-27.26-27.251-27.26h-42.353v43.638c0 15.055 12.202 27.26 27.251 27.26h42.353zM729.365 193.807c0-15.055-12.201-27.26-27.251-27.26h-196.928c-15.050 0-27.251 12.207-27.251 27.26v98.981h70.267c30.098 0 54.501 24.401 54.501 54.499v71.474h99.411c15.050 0 27.251-12.207 27.251-27.26v-197.693z"  horiz-adv-x="1024" />

    
    <glyph glyph-name="wendang" unicode="&#59106;" d="M236.864 832h472.96L896 634.88V48c0-61.856-54.72-112-114.848-112H236.832C176.768-64 128-13.855999999999995 128 48v672C128 781.856 176.736 832 236.864 832zM672 768v-133.856a26.144 26.144 0 0 1 26.144-26.144H832l-160 160z m106.656-768c29.44 0 53.344 24.576 53.344 54.848V548.576h-160c-29.44 0-53.344 24.544-53.344 54.848V768H245.344C215.904 768 192 743.424 192 713.152v-658.304C192 24.576000000000022 215.872 0 245.344 0h533.312z"  horiz-adv-x="1024" />

    
    <glyph glyph-name="bofang2" unicode="&#58916;" d="M512 896C230.4 896 0 665.6 0 384s230.4-512 512-512 512 230.4 512 512S793.6 896 512 896z m0-981.333333C253.866667-85.333333 42.666667 125.866667 42.666667 384S253.866667 853.333333 512 853.333333s469.333333-211.2 469.333333-469.333333-211.2-469.333333-469.333333-469.333333zM672 454.4l-170.666667 113.066667c-57.6 38.4-106.666667 12.8-106.666666-57.6v-256c0-70.4 46.933333-96 106.666666-57.6l170.666667 113.066666c57.6 42.666667 57.6 106.666667 0 145.066667z"  horiz-adv-x="1024" />

    
    <glyph glyph-name="icon--" unicode="&#59198;" d="M294.4 496.64c-15.36 0-25.6-10.24-25.6-25.6s10.24-25.6 25.6-25.6h460.8c15.36 0 25.6 10.24 25.6 25.6s-10.24 25.6-25.6 25.6h-460.8z m-102.4 153.6h665.6c15.36 0 25.6 10.24 25.6 25.6s-10.24 25.6-25.6 25.6h-665.6c-15.36 0-25.6-10.24-25.6-25.6 0-12.8 10.24-25.6 25.6-25.6z m665.6-358.4h-665.6c-15.36 0-25.6-10.24-25.6-25.6s10.24-25.6 25.6-25.6h665.6c15.36 0 25.6 10.24 25.6 25.6s-10.24 25.6-25.6 25.6z m-153.6-204.8h-358.4c-15.36 0-25.6-10.24-25.6-25.6s10.24-25.6 25.6-25.6h358.4c15.36 0 25.6 10.24 25.6 25.6s-10.24 25.6-25.6 25.6z"  horiz-adv-x="1024" />

    
    <glyph glyph-name="icon--1" unicode="&#59199;" d="M192 650.24h665.6c15.36 0 25.6 10.24 25.6 25.6s-10.24 25.6-25.6 25.6h-665.6c-15.36 0-25.6-10.24-25.6-25.6 0-12.8 10.24-25.6 25.6-25.6z m0-204.8h460.8c15.36 0 25.6 10.24 25.6 25.6s-10.24 25.6-25.6 25.6h-460.8c-15.36 0-25.6-10.24-25.6-25.6 0-12.8 10.24-25.6 25.6-25.6z m665.6-153.6h-665.6c-15.36 0-25.6-10.24-25.6-25.6s10.24-25.6 25.6-25.6h665.6c15.36 0 25.6 10.24 25.6 25.6s-12.8 25.6-25.6 25.6z m-281.6-204.8h-384c-15.36 0-25.6-10.24-25.6-25.6s10.24-25.6 25.6-25.6h384c15.36 0 25.6 10.24 25.6 25.6s-12.8 25.6-25.6 25.6z"  horiz-adv-x="1024" />

    
    <glyph glyph-name="shezhi" unicode="&#58898;" d="M93 470h6.12l-3.39-3.41a50.25 50.25 0 0 1 0-70.71l34.77-35a50 50 0 0 1 70.95 0l1.55 1.56V360a50 50 0 0 1 50-50h49a50 50 0 0 1 50 50v4.17l3.47-3.46a50 50 0 0 1 70.6 0l35.57 35.47a50 50 0 0 1 0 70.82l-3 3H463a50 50 0 0 1 50 50v50a50 50 0 0 1-50 50h-2.44l2.15 2.15a50 50 0 0 1 0 70.71l-35.36 35.36a50 50 0 0 1-70.71 0l-3.64-3.64V730a50 50 0 0 1-50 50h-50a50 50 0 0 1-50-50v-3.7l-2.45 2.44a50 50 0 0 1-70.6 0l-35.57-35.47a50 50 0 0 1 0-70.82l2.46-2.45H93a50 50 0 0 1-50-50v-50a50 50 0 0 1 50-50z m183 169a90 90 0 1 0-90-90 90 90 0 0 0 90 90zM513 705a75 75 0 0 0 75 75h320a75 75 0 0 0 0-150H588a75 75 0 0 0-75 75zM983 385a75 75 0 0 0-75-75H588a75 75 0 0 0 0 150h320a75 75 0 0 0 75-75zM982 65a75 75 0 0 0-75-75H117a75 75 0 0 0 0 150h790a75 75 0 0 0 75-75z"  horiz-adv-x="1024" />

    
    <glyph glyph-name="shanchuxian" unicode="&#58980;" d="M832.1 438.7h-280-0.1v0.2h-2.2c-4.4 0.3-8.7 0.5-13.1 0.5h-42.8c-53.3 5-95.1 50-95.1 104.5 0 57.9 47.1 105 105 105H552c36.6 0 70.1-18.8 89.5-50.3l39.2 24.1c-13.3 21.6-31.9 39.6-53.9 52.2-22.7 13-48.6 19.9-74.7 19.9h-48.3c-83.3 0-151-67.7-151-151 0-40.9 16.3-78 42.8-105.2H191.9v-46H550c69.3-6.8 123.7-65.4 123.7-136.5 0-75.6-61.5-137.1-137.1-137.1h-60.4c-39.3 0-76.9 17.1-103 46.9l-34.6-30.3c34.9-39.8 85.1-62.6 137.6-62.6h60.4c48.7 0 94.7 19.1 129.4 53.8 34.7 34.7 53.8 80.6 53.8 129.4s-19.1 94.7-53.8 129.4c-2.5 2.5-5 4.8-7.5 7.1h173.6v46z"  horiz-adv-x="1024" />

    
    <glyph glyph-name="tiaoshi" unicode="&#60257;" d="M544 507.488V800a32 32 0 0 1-64 0v-292.512c-55.104-14.272-96-63.904-96-123.488s40.896-109.216 96-123.488v-291.616c0-18.176 14.336-32.896 32-32.896s32 14.72 32 32.928v291.616c55.104 14.272 96 63.904 96 123.488s-40.896 109.184-96 123.456zM223.136 187.744C223.328 189.184 224 190.496 224 192V800a32 32 0 0 1-64 0v-608c0-1.504 0.672-2.816 0.864-4.256A127.744 127.744 0 0 1 64 64a128 128 0 0 1 256 0 127.744 127.744 0 0 1-96.864 123.744zM192 0a64 64 0 1 0 0.032 128.032A64 64 0 0 0 192 0zM960 704a128 128 0 0 1-256 0 127.744 127.744 0 0 1 96.864-123.744c-0.192-1.44-0.864-2.752-0.864-4.256v-608a32 32 0 0 1 64 0V576c0 1.504-0.672 2.816-0.864 4.256A127.744 127.744 0 0 1 960 704z m-128-64a64 64 0 1 0 0.032 128.032A64 64 0 0 0 832 640z"  horiz-adv-x="1024" />

    
    <glyph glyph-name="weiraogoujianxuanzhuan" unicode="&#58894;" d="M929 47a30 30 0 0 0-30 30v83.137a447.514 447.514 0 0 0-70.921-92.209C722.935-37.22500000000002 578.442-79.00800000000004 442-57.48199999999997a444.917 444.917 0 0 0-241.139 120.591 30 30 0 1 0 37.258 47.01l0.231 0.231A385.175 385.175 0 0 1 442 3.375v0.006c120.855-22.123 250.206 13.519 343.656 106.975a386.646 386.646 0 0 1 70.6 96.653h-87.247a30 30 0 0 0 0 60H929a30 30 0 0 0 30-30V77a30 30 0 0 0-30-30zM512 504a120 120 0 1 0-120-120 120 120 0 0 0 120 120z m293.005 147.025a29.87 29.87 0 0 0-19.117 6.882l-0.232-0.231A386.5 386.5 0 0 1 689.478 728h-0.011c-145.646 75.182-329.021 51.747-451.117-70.35a386.615 386.615 0 0 1-70.6-96.65H255a30 30 0 0 0 0-60H95a30 30 0 0 0-30 30V691a30 30 0 0 0 60 0v-83.129a447.534 447.534 0 0 0 70.923 92.206C317.981 822.134 493.048 858.8 647 810.164v0.045a444.883 444.883 0 0 0 176.143-105.291 30 30 0 0 0-18.138-53.893z"  horiz-adv-x="1024" />

    
    <glyph glyph-name="xingzhuang-xingxing" unicode="&#60314;" d="M254.88-48a32 32 0 0 0-31.52 37.344l46.304 272.992-196.128 193.28a32 32 0 0 0 17.792 54.432l270.752 39.776 121.152 248.16c10.72 22.016 46.816 22.016 57.504 0l121.152-248.16 270.752-39.776a32 32 0 0 0 17.824-54.432l-196.128-193.28 45.248-266.816a32 32 0 0 0-29.888-43.52h-0.64c-5.152 0-10.304 1.248-15.04 3.744L512 84.416l-242.08-128.672a32.224 32.224 0 0 0-15.04-3.744zM164.224 456.096l162.24-159.904c7.424-7.328 10.816-17.856 9.088-28.128l-38.208-225.312 199.648 106.112a31.968 31.968 0 0 0 30.016 0l199.648-106.112-38.208 225.312a32 32 0 0 0 9.088 28.128l162.208 159.904-223.84 32.896a32 32 0 0 0-24.096 17.632L512 711.04l-99.808-204.416a31.968 31.968 0 0 0-24.096-17.632l-223.872-32.896z"  horiz-adv-x="1024" />

    
    <glyph glyph-name="jiesuo" unicode="&#58913;" d="M881.331644 457.083978h-661.873677v67.422591a301.18855 301.18855 0 0 0 120.12544 240.971427 36.747885 36.747885 0 0 1 10.293525 47.967828 36.850821 36.850821 0 0 1-53.629266 11.322878A365.523083 365.523083 0 0 1 146.373937 530.270943v-73.186965A73.392835 73.392835 0 0 1 73.186972 383.999949v-438.812984a73.392835 73.392835 0 0 1 73.186965-73.186965h731.354973a73.392835 73.392835 0 0 1 73.08403 73.186965V384.102884a73.392835 73.392835 0 0 1-69.481296 72.981094z m-3.602734-470.619977a41.174101 41.174101 0 0 0-41.174101-41.174101h-648.492094a41.174101 41.174101 0 0 0-41.174102 41.174101V342.928783a41.174101 41.174101 0 0 0 41.174102 41.174101h648.492094a41.174101 41.174101 0 0 0 41.174101-41.174101zM512.102891 895.999897a36.027339 36.027339 0 1 1 35.924403-36.130274A36.027339 36.027339 0 0 1 512.102891 895.999897zM693.268936 833.003522a36.027339 36.027339 0 1 1 35.924404-36.130274 35.821468 35.821468 0 0 1-35.924404 36.130274z"  horiz-adv-x="1024" />

    
    <glyph glyph-name="suoding1" unicode="&#58914;" d="M881.3314 457.083802h-661.873477v67.42257C219.457923 679.835622 337.936363 812.210318 492.853872 822.195034a290.174391 290.174391 0 0 0 117.243218-16.3667 36.439069 36.439069 0 0 1 45.909109 20.587044 36.542004 36.542004 0 0 1-21.513461 48.379555A361.302629 361.302629 0 0 1 511.999824 895.999588 366.758196 366.758196 0 0 1 146.373915 530.270745v-73.186943A73.392813 73.392813 0 0 1 73.186972 383.999794v-438.812851a73.392813 73.392813 0 0 1 73.186943-73.186943h731.354752a73.392813 73.392813 0 0 1 73.084008 73.186943V384.102729a73.392813 73.392813 0 0 1-69.481275 72.981073z m-3.602733-470.619835a41.174089 41.174089 0 0 0-41.174089-41.174089h-648.491898a41.174089 41.174089 0 0 0-41.174089 41.174089V342.928641a41.174089 41.174089 0 0 0 41.174089 41.174088h648.491898a41.174089 41.174089 0 0 0 41.174089-41.174088zM836.966319 612.001311a36.027328 36.027328 0 1 1 35.924393-36.130263 36.130263 36.130263 0 0 1-35.924393 36.130263zM768.514397 772.477322a36.027328 36.027328 0 1 1 36.027327-36.027328 36.130263 36.130263 0 0 1-36.027327 36.027328z"  horiz-adv-x="1024" />

    
    <glyph glyph-name="jiacu" unicode="&#59355;" d="M256 430.545455h298.193455A144.128 144.128 0 0 1 698.181818 574.533818v14.568727A144.128 144.128 0 0 1 554.193455 733.090909H256v-302.545454z m-69.818182-69.818182V746.612364A56.366545 56.366545 0 0 0 242.478545 802.909091h311.71491C672.093091 802.909091 768 707.002182 768 589.102545v-14.568727a213.271273 213.271273 0 0 0-69.073455-157.230545C793.227636 384.558545 861.090909 294.818909 861.090909 189.533091v-6.702546C861.090909 49.943273 752.965818-58.181818 620.078545-58.181818H244.363636A58.228364 58.228364 0 0 0 186.181818 0V360.727273z m69.818182-349.090909h364.078545C714.472727 11.636364 791.272727 88.436364 791.272727 182.830545v6.702546C791.272727 283.927273 714.472727 360.727273 620.078545 360.727273H256v-349.090909z"  horiz-adv-x="1024" />

    
    <glyph glyph-name="bofang1" unicode="&#58928;" d="M548.571429 347.428571m-384 0a384 384 0 1 1 768 0 384 384 0 1 1-768 0ZM512-91.428571C248.685714-91.428571 36.571429 120.685714 36.571429 384S248.685714 859.428571 512 859.428571s475.428571-212.114286 475.428571-475.428571-212.114286-475.428571-475.428571-475.428571z m0 896C281.6 804.571429 91.428571 614.4 91.428571 384S281.6-36.571429 512-36.571429 932.571429 153.6 932.571429 384 742.4 804.571429 512 804.571429zM457.142857 245.028571c-18.285714 0-36.571429 7.314286-47.542857 25.6-3.657143 7.314286-7.314286 18.285714-7.314286 29.257143v168.228572c0 29.257143 25.6 54.857143 54.857143 54.857143 10.971429 0 21.942857-3.657143 29.257143-7.314286l135.314286-84.114286c10.971429-7.314286 21.942857-18.285714 25.6-32.914286s0-29.257143-7.314286-40.228571c-3.657143-7.314286-10.971429-14.628571-18.285714-18.285714l-135.314286-84.114286c-10.971429-7.314286-18.285714-10.971429-29.257143-10.971429z m0 223.085715v-168.228572l135.314286 84.114286-135.314286 84.114286z"  horiz-adv-x="1024" />

    
    <glyph glyph-name="Group-" unicode="&#59030;" d="M768 544a224 224 0 0 0 0-448h-32a32 32 0 0 0 0 64h32a160 160 0 0 1 0 320 147.2 147.2 0 0 1-27.84-2.56 32 32 0 0 0-38.08 27.52 192 192 0 0 1-380.16 0 32 32 0 0 0-38.08-27.52A147.2 147.2 0 0 1 256 480a160 160 0 0 1 0-320h32a32 32 0 0 0 0-64H256a224 224 0 0 0 0 448h8.32a256 256 0 0 0 495.36 0zM544 0a32 32 0 0 0-64 0v288a32 32 0 0 0 64 0zM424 138.88a32 32 0 1 0-48 42.24l112 128a32 32 0 0 0 48 0l112-128a32 32 0 0 0-48-42.24L512 239.36z"  horiz-adv-x="1024" />

    
    <glyph glyph-name="Group-1" unicode="&#59031;" d="M768 544a224 224 0 0 0 0-448h-32a32 32 0 0 0 0 64h32a160 160 0 0 1 0 320 147.2 147.2 0 0 1-27.84-2.56 32 32 0 0 0-38.08 27.52 192 192 0 0 1-380.16 0 32 32 0 0 0-38.08-27.52A147.2 147.2 0 0 1 256 480a160 160 0 0 1 0-320h32a32 32 0 0 0 0-64H256a224 224 0 0 0 0 448h8.32a256 256 0 0 0 495.36 0zM480 288a32 32 0 0 0 64 0v-288a32 32 0 0 0-64 0zM600 149.12a32 32 0 0 0 48-42.24l-112-128a32 32 0 0 0-48 0l-112 128a32 32 0 1 0 48 42.24L512 48.639999999999986z"  horiz-adv-x="1024" />

    
    <glyph glyph-name="combinatorial-layout" unicode="&#59076;" d="M992 608h-256v256c0 19.2-12.8 32-32 32H32C12.8 896 0 883.2 0 864V192c0-19.2 12.8-32 32-32h256v-256c0-19.2 12.8-32 32-32h672c19.2 0 32 12.8 32 32V576c0 19.2-12.8 32-32 32zM64 224V832h608v-224H320c-19.2 0-32-12.8-32-32v-352H64z m608 320v-320h-320v320h320zM960-64H352v224H704c19.2 0 32 12.8 32 32V544H960V-64z"  horiz-adv-x="1024" />

    
    <glyph glyph-name="suoding2" unicode="&#58960;" d="M923.927273 686.545455c-6.981818 9.309091-23.272727 11.636364-32.581818 4.654545-9.309091-6.981818-11.636364-23.272727-4.654546-32.581818C947.2 579.490909 977.454545 484.072727 977.454545 384c0-256-209.454545-465.454545-465.454545-465.454545S46.545455 128 46.545455 384 256 849.454545 512 849.454545c100.072727 0 195.490909-30.254545 274.618182-90.763636 9.309091-6.981818 25.6-4.654545 32.581818 4.654546s4.654545 25.6-4.654545 32.581818C726.109091 861.090909 621.381818 896 512 896 230.4 896 0 665.6 0 384s230.4-512 512-512 512 230.4 512 512c0 109.381818-34.909091 214.109091-100.072727 302.545455zM512 642.327273c-72.145455 0-132.654545-60.509091-132.654545-132.654546V453.818182c-37.236364 0-67.490909-32.581818-67.49091-69.818182v-188.509091c0-39.563636 30.254545-69.818182 69.818182-69.818182h260.654546c39.563636 0 69.818182 30.254545 69.818182 69.818182V384c0 37.236364-30.254545 69.818182-67.49091 69.818182v55.854545c0 72.145455-60.509091 132.654545-132.654545 132.654546z m0-46.545455c46.545455 0 86.109091-39.563636 86.109091-86.109091V453.818182h-172.218182v55.854545c0 46.545455 39.563636 86.109091 86.109091 86.109091z m153.6-211.781818v-188.509091c0-13.963636-9.309091-23.272727-23.272727-23.272727H381.672727c-13.963636 0-23.272727 9.309091-23.272727 23.272727V384c0 13.963636 9.309091 23.272727 23.272727 23.272727h260.654546c13.963636 0 23.272727-9.309091 23.272727-23.272727z"  horiz-adv-x="1025" />

    
    <glyph glyph-name="renwu" unicode="&#58925;" d="M527.45467345 690.30226159c-35.55450431 0-65.86647025-12.67890963-91.04919402-37.83073481-25.13122542-25.14667543-37.72258767-55.5667878-37.72258767-91.1367414v-96.7294693c0-35.68325051 12.596512-65.99006669 37.72258767-91.24488855 25.18272376-25.15182518 55.4946897-37.72258767 91.04919402-37.72258694 35.53390526 0 65.86647025 12.57076248 91.02859497 37.72258694 25.13122542 25.25482186 37.72258767 55.5667878 37.72258767 91.24488855V561.33478537c0 35.57510408-12.596512 65.99006669-37.72258767 91.13674141C593.31599394 677.6233519699999 562.98342896 690.30226159 527.44952368 690.30226159z m0-419.15073434c-46.61636368 0-91.56417879-3.75938407-134.91039221-11.17515557-43.3668139-7.52391791-81.13575014-17.95234657-113.32225799-31.38313285-12.88490295-5.37643432-24.39994779-11.07215889-34.55028573-17.09232346-10.11428817-6.128311-17.83905037-11.60774198-23.12278756-16.44344346-5.27343766-4.83570075-9.25426507-9.1358184-11.95793152-12.6789089-2.68306741-3.65638741-4.02717598-6.55574767-4.02717599-8.70323198v-63.73443595c0-8.81652817 3.16715216-16.44344346 9.44480913-22.78804802 6.31885505-6.23130766 13.88397249-9.45510864 22.7622985-9.45510865h579.35714722c8.87832674 0 16.43314394 3.22380098 22.76229849 9.45510865 6.27765623 6.34460457 9.44480913 13.97151915 9.44480913 22.78804802v63.51814238c0 2.14748359-1.36470762 5.04684457-4.04777503 8.70323197-2.67791765 3.54824098-6.67419434 7.84320815-11.94248223 12.68405939-5.27858742 4.83570075-13.00334963 10.31513246-23.12793732 16.44344345-10.14518746 6.0150148-21.67568231 11.71073937-34.56058454 17.30346656-32.16590881 13.43078629-69.9554441 23.85921494-113.30165895 31.38313285-43.34621413 7.41577148-88.29402924 11.17515556-134.9000934 11.17515557z m0 483.63704697c35.01892122 0 67.34962455-8.70323197 96.92001407-26.00669853 29.6115876-17.30346656 53.06396492-40.73524483 70.27473433-70.39833077 17.25196822-29.56008927 25.90885163-61.90109286 25.90885162-97.04875954v-96.7294693c0-26.86672235-5.18074052-52.33783705-15.6040194-76.30519843-10.37178056-24.0755078-24.87373376-44.92721534-43.49040962-62.76626571 48.95954108-7.74021149 92.43965117-19.02351347 130.51242837-34.07135073 38.02127814-15.04268678 67.82855955-32.77873977 89.37549568-53.3060073 21.53148683-20.41912111 32.33585382-42.02270531 32.33585381-64.69745645v-63.51814238c0-26.65557853-9.42935912-49.4384768-28.29322854-68.35384385-18.84841942-18.91536704-41.64161649-28.37562546-68.27144623-28.37562545H237.77609983c-26.62982973 0-49.41787703 9.4602584-68.27144623 28.37562545C150.6407849 60.50241828000003 141.21142578 83.28531654999995 141.21142578 109.94089507000001v63.7292862c0 22.67990089 10.77346769 44.28348509 32.31525406 64.7026062 21.56753516 20.52726754 51.328468 38.26332125 89.26734923 53.3060073 37.98522982 15.04783654 81.43444062 26.33113853 130.37338265 33.85505717a196.48704505 196.48704505 0 0 0-43.22776819 62.87441214c-10.41812913 23.96736137-15.62461845 49.33032966-15.62461845 76.197052V561.33478537c0 35.03437051 8.64143339 67.49382003 25.93460116 97.04875955 17.25196822 29.66308594 40.67344698 53.19786088 70.26443482 70.39833077C460.08959961 746.0853422499999 492.37910486 754.78857422 527.45467345 754.78857422z"  horiz-adv-x="1066" />

    
    <glyph glyph-name="fenye" unicode="&#58986;" d="M742.4 767.488H409.6a25.6 25.6 0 0 1-17.92-7.68l-230.4-230.912a25.6 25.6 0 0 1-7.68-17.92V76.8a128 128 0 0 1 128-128h460.8A128 128 0 0 1 870.4 76.8V640a128 128 0 0 1-128 127.488zM393.728 691.2v-153.6h-153.6zM819.2 76.8a76.8 76.8 0 0 0-76.8-76.8h-460.8A76.8 76.8 0 0 0 204.8 76.8V486.4a25.6 25.6 0 0 1 9.728 0h204.8a25.6 25.6 0 0 1 25.6 25.6v204.8h297.472A76.8 76.8 0 0 0 819.2 640z"  horiz-adv-x="1024" />

    
    <glyph glyph-name="shengyin1" unicode="&#60128;" d="M725.333333 597.333333v-426.666666h-85.333333V597.333333h85.333333zM384 597.333333v-426.666666H298.666667V597.333333h85.333333z m-170.666667-128v-170.666666H128v170.666666h85.333333z m682.666667 0v-170.666666h-85.333333v170.666666h85.333333z m-341.333333 256v-682.666666h-85.333334V725.333333h85.333334z"  horiz-adv-x="1024" />

    
    <glyph glyph-name="renwu1" unicode="&#58991;" d="M491.66666667 370.70000000000005c86.4 0 151 110.4 151 209 0 92.8-59.3 152.8-151 152.8s-150.9-60-150.9-152.8c0-98.6 64.5-209 150.9-209z m0 323.8c70.7 0 113-42.9 113-114.8 0-77.5-50.4-171-113-171s-112.9 93.6-112.9 171c0 84.7 58.3 114.8 112.9 114.8zM491.66666667 311.9c-151 0-273.9-103.4-273.9-230.4 0-10.5 8.5-19 19-19h509.8c10.5 0 19 8.5 19 19 0 127.1-122.9 230.4-273.9 230.4zM256.96666667 100.60000000000002C268.66666667 197.79999999999995 369.46666667 273.9 491.66666667 273.9s223-76.2 234.7-173.4H256.96666667z"  horiz-adv-x="1024" />

    
    <glyph glyph-name="zujian-xingzhuang" unicode="&#58883;" d="M307.2 409.6V701.44c0 23.04 17.92 40.96 40.96 40.96h478.72c25.6 0 43.52-17.92 43.52-40.96v-478.72c0-23.04-17.92-40.96-40.96-40.96h-158.72l-227.84 386.56c-2.56 2.56-5.12 7.68-10.24 10.24-12.8 7.68-28.16 2.56-35.84-10.24L307.2 409.6zM445.44 448l243.2-417.28c7.68-12.8 2.56-28.16-10.24-35.84-5.12-2.56-7.68-2.56-12.8-2.56H179.2c-15.36 0-25.6 10.24-25.6 25.6 0 5.12 0 10.24 2.56 12.8l243.2 417.28c7.68 12.8 23.04 15.36 35.84 10.24 5.12-2.56 7.68-5.12 10.24-10.24z"  horiz-adv-x="1024" />

    
    <glyph glyph-name="guanlian" unicode="&#58996;" d="M925.7 382.3v3.8c-0.3 88.9-72.3 161-161.2 161.2H559c-88.9-0.3-160.9-72.3-161.2-161.2v-3.8c0-7.4 0.6-14.6 1.6-21.8h75.2c-1.9 7.1-2.8 14.4-2.8 21.8v3.8c0 48.2 39.1 87.3 87.3 87.3h205.4c48.2 0 87.3-39.1 87.3-87.3v-3.8c-0.1-48.2-39.1-87.3-87.3-87.3h-92.9c-11.8-27.8-29.1-52.9-50.8-73.9h143.7c89 0.3 161 72.3 161.2 161.2z m-299.8 3.8c0 7.3-0.5 14.5-1.5 21.7h-75.2c1.8-7 2.8-14.3 2.8-21.8v-3.8c0-48.2-39.1-87.3-87.3-87.3H259.4c-48.2 0-87.3 39.1-87.3 87.3V386c0.1 48.2 39.1 87.3 87.3 87.3h92.9c11.8 27.8 29.1 52.9 50.8 73.9l-143.7 0.1C170.3 547.1 98.3 475 98 386.1v-3.8c0.3-88.9 72.3-160.9 161.2-161.2h205.4c88.9 0.3 161 72.3 161.2 161.2l0.1 3.8z"  horiz-adv-x="1024" />

    
    <glyph glyph-name="zuhe1" unicode="&#58920;" d="M839.036 765.542H184.964c-30.102 0-54.506-24.404-54.506-54.506v-654.072c0-30.102 24.404-54.506 54.506-54.506h654.072c30.102 0 54.506 24.404 54.506 54.506V711.0360000000001c0 30.102-24.404 54.506-54.506 54.506z m0-681.328c0-15.05-12.196-27.249-27.249-27.249H213.066c-15.05 0-27.249 12.196-27.249 27.249V682.935c0 15.05 12.196 27.249 27.249 27.249h598.721c15.049 0 27.249-12.196 27.249-27.249v-598.721zM730.028 474.361H602.704V601.178c0 30.091-24.402 54.499-54.501 54.499H295.448c-30.098 0-54.501-24.401-54.501-54.499v-253.89c0-30.091 24.402-54.499 54.501-54.499h127.324v-126.817c0-30.091 24.402-54.499 54.501-54.499h252.755c30.098 0 54.501 24.401 54.501 54.499v253.89c0 30.091-24.402 54.499-54.501 54.499zM323.36 347.86300000000006c-15.05 0-27.251 12.207-27.251 27.26V572.817c0 15.055 12.201 27.26 27.251 27.26h196.928c15.051 0 27.251-12.207 27.251-27.26v-98.458h-70.267c-30.098 0-54.501-24.401-54.501-54.499v-71.998H323.36z m224.179 70.897v-43.638c0-15.055-12.202-27.26-27.251-27.26h-42.353V391.5c0 15.055 12.202 27.26 27.251 27.26h42.353z m181.826-224.953c0-15.055-12.201-27.26-27.251-27.26H505.186c-15.05 0-27.251 12.207-27.251 27.26v98.981h70.267c30.098 0 54.501 24.401 54.501 54.499v71.474h99.411c15.05 0 27.251-12.207 27.251-27.26v-197.693z"  horiz-adv-x="1024" />

    
    <glyph glyph-name="fanhuishangyibu-" unicode="&#58906;" d="M456.96 520.107A432.213 432.213 0 0 0 870.4 88.32a34.133 34.133 0 0 0-68.267 0A363.947 363.947 0 0 1 456.96 451.84v-192.853L153.6 486.4l303.36 227.413z"  horiz-adv-x="1024" />

    
    <glyph glyph-name="fanhuixiayibu-" unicode="&#58910;" d="M567.04 520.107A432.213 432.213 0 0 1 153.6 88.32a34.133 34.133 0 1 1 68.267 0A363.947 363.947 0 0 0 567.04 451.84v-192.853L870.4 486.4 567.04 713.813z"  horiz-adv-x="1024" />

    
    <glyph glyph-name="xinjian" unicode="&#58899;" d="M904.2 551.7c-21.5 50.7-52.2 96.3-91.3 135.4s-84.6 69.8-135.4 91.3C625 800.5 569.3 811.8 511.8 811.8S398.5 800.5 346 778.3c-50.7-21.5-96.3-52.2-135.4-91.3s-69.8-84.6-91.3-135.4c-22.2-52.5-33.5-108.3-33.5-165.8S97.1 272.5 119.3 220c21.5-50.7 52.2-96.3 91.3-135.4 39.1-39.1 84.6-69.8 135.4-91.3 52.5-22.2 108.3-33.5 165.8-33.5s113.3 11.3 165.8 33.5c50.7 21.5 96.3 52.2 135.4 91.3 39.1 39.1 69.8 84.6 91.3 135.4 22.2 52.5 33.5 108.3 33.5 165.8s-11.4 113.4-33.6 165.9zM511.8 20C310 20 145.9 184.2 145.9 385.9S310 751.8 511.8 751.8c201.7 0 365.9-164.1 365.9-365.9 0-201.7-164.2-365.9-365.9-365.9zM737 415H542V610c0 16.5-13.5 30-30 30s-30-13.5-30-30v-195H287c-16.5 0-30-13.5-30-30s13.5-30 30-30h195v-195c0-16.5 13.5-30 30-30s30 13.5 30 30V355h195c16.5 0 30 13.5 30 30s-13.5 30-30 30z"  horiz-adv-x="1024" />

    
    <glyph glyph-name="background" unicode="&#58892;" d="M200.04575469 864L32 695.95424531v-76.23714656L276.28290125 864h-76.23714656zM407.17017219 864L32 488.82982781v-76.22214562L483.39231781 864h-76.22214562zM614.29458969 864L32 281.70541031000005v-76.22214656L690.51673625 864h-76.22214656zM821.40400625 864L32 74.59599375000005v-76.2371475L897.64115375 864h-76.2371475zM992 824.75632125a48.0045 48.0045 0 0 1-10.50098437-7.81573312L71.27368156-93.25474219c-0.85508062-0.85508062-1.27512-1.86017437-2.04019125-2.74525781h75.51708L992 751.2344278099999zM992 620.3621587499999L275.63784125-96h76.23714656l640.12501219 640.12501219v76.23714656zM992 413.23774125L482.76225875-96h76.2371475L992 337.00059375v76.2371475zM992 206.11332281L689.88667719-96h76.22214562l225.89117719 225.89117719v76.22214562z"  horiz-adv-x="1024" />

    
    <glyph glyph-name="shezhi1" unicode="&#58993;" d="M291.5 124.60000000000002H875c28.6 0 51.8-23.2 51.8-51.8 0-28.6-23.2-51.8-51.8-51.8H291.5c-23.4-40.6-71.2-60.4-116.5-48.3-45.3 12.1-76.8 53.2-76.8 100 0 46.9 31.5 87.9 76.8 100 45.3 12.3 93.1-7.5 116.5-48.1z m131.4 207.1H150.1c-28.6 0-51.8 23.2-51.8 51.8 0 28.6 23.2 51.8 51.8 51.8h272.8c18.5 32 52.7 51.8 89.7 51.8s71.2-19.7 89.7-51.8h272.8c28.6 0 51.8-23.2 51.8-51.8 0-28.6-23.2-51.8-51.8-51.8H602.3c-18.5-32-52.7-51.8-89.7-51.8s-71.2 19.8-89.7 51.8zM733.6 746c23.4 40.6 71.2 60.4 116.5 48.3 45.3-12.1 76.8-53.2 76.8-100 0-46.9-31.5-87.9-76.8-100-45.3-12.1-93.1 7.7-116.5 48.3H150.1c-28.6 0-51.8 23.2-51.8 51.8 0 28.6 23.2 51.8 51.8 51.8h583.5z m0 0"  horiz-adv-x="1024" />

    
    <glyph glyph-name="yulan2" unicode="&#58953;" d="M512 0C271.232 0 32 209.984 32 384S271.232 768 512 768c240.96 0 480-209.6 480-384s-239.04-384-480-384z m0 64c207.36 0 416 182.976 416 320S719.36 704 512 704C304.896 704 96 520.704 96 384s208.896-320 416-320z m0 128a192 192 0 1 0 0 384 192 192 0 0 0 0-384z m0 64a128 128 0 1 1 0 256 128 128 0 0 1 0-256z"  horiz-adv-x="1024" />

    
    <glyph glyph-name="daojushangcheng" unicode="&#58924;" d="M706.346667 37.120000000000005H317.653333c-62.506667 0-113.493333 56.533333-113.493333 125.866667V431.573333a32 32 0 0 0 64 0v-268.373333a56.746667 56.746667 0 0 1 49.493333-61.866667h388.693334a56.746667 56.746667 0 0 1 49.493333 61.866667v118.826667a32 32 0 1 0 64 0v-119.04c0-69.333333-51.84-125.866667-113.493333-125.866667zM512 369.91999999999996a124.586667 124.586667 0 0 0-78.293333 27.946667 39.04 39.04 0 0 1-49.706667 0 124.16 124.16 0 0 0-156.8 0l-17.706667 14.293333a136.32 136.32 0 0 0-49.706666 105.6V597.333333a130.986667 130.986667 0 0 0 128 133.333334h448a130.986667 130.986667 0 0 0 128-133.333334v-78.72a136.32 136.32 0 0 0-49.706667-105.6l-17.706667-14.293333a124.16 124.16 0 0 0-156.8 0 39.04 39.04 0 0 1-49.706666 0A124.586667 124.586667 0 0 0 512 369.91999999999996z m-103.253333 122.24a124.8 124.8 0 0 0 78.293333-27.733333 38.826667 38.826667 0 0 1 49.706667 0 124.16 124.16 0 0 0 156.8 0 38.826667 38.826667 0 0 1 49.706666 0l17.706667 14.293333a50.133333 50.133333 0 0 1 17.92 39.04V597.333333a45.653333 45.653333 0 0 1-42.666667 48h-448a45.653333 45.653333 0 0 1-42.666666-48v-78.72a50.133333 50.133333 0 0 1 17.92-39.04l17.706666-14.293333a38.826667 38.826667 0 0 1 49.706667 0 124.8 124.8 0 0 0 77.866667 26.88zM644.608 250.48868000000004m-32.432631-32.432631a45.866667 45.866667 0 1 1 64.865262 64.865262 45.866667 45.866667 0 1 1-64.865262-64.865262Z"  horiz-adv-x="1024" />

    
    <glyph glyph-name="zuhe-" unicode="&#58888;" d="M713.3184 242.89279999999997V513.4336000000001c0 36.0448-29.0816 65.1264-65.1264 65.1264H377.4464c-36.0448 0-65.1264-29.0816-65.1264-65.1264v-270.5408c0-36.0448 29.0816-65.1264 65.1264-65.1264h270.5408c36.2496-0.2048 65.3312 29.0816 65.3312 65.1264zM339.5584 127.38559999999995h-42.1888c-22.1184 0-39.936 17.8176-39.936 39.936v38.912c0 3.4816-2.8672 6.3488-6.3488 6.3488h-35.6352c-3.4816 0-6.3488-2.8672-6.3488-6.3488v-38.912c0-48.7424 39.5264-88.2688 88.2688-88.2688h42.1888c3.4816 0 6.3488 2.8672 6.3488 6.3488v35.6352c0 3.4816-2.8672 6.3488-6.3488 6.3488zM726.6304 688.9472000000001h-39.7312c-3.4816 0-6.3488-2.8672-6.3488-6.3488v-35.6352c0-3.4816 2.8672-6.3488 6.3488-6.3488h39.7312c22.1184 0 39.936-17.8176 39.936-39.936v-46.8992c0-3.4816 2.8672-6.3488 6.3488-6.3488h35.6352c3.4816 0 6.3488 2.8672 6.3488 6.3488v46.8992c0 48.7424-39.5264 88.2688-88.2688 88.2688zM808.5504 212.5824h-35.6352c-3.4816 0-6.3488-2.8672-6.3488-6.3488v-38.912c0-22.1184-17.8176-39.936-39.936-39.936h-39.7312c-3.4816 0-6.3488-2.8672-6.3488-6.3488v-35.6352c0-3.4816 2.8672-6.3488 6.3488-6.3488h39.7312c48.7424 0 88.2688 39.5264 88.2688 88.2688v38.912c0 3.6864-2.8672 6.3488-6.3488 6.3488zM215.4496 547.2256h35.6352c3.4816 0 6.3488 2.8672 6.3488 6.3488v46.8992c0 22.1184 17.8176 39.936 39.936 39.936h42.1888c3.4816 0 6.3488 2.8672 6.3488 6.3488v35.6352c0 3.4816-2.8672 6.3488-6.3488 6.3488h-42.1888c-48.7424 0-88.2688-39.5264-88.2688-88.2688v-46.8992c0-3.4816 2.8672-6.3488 6.3488-6.3488z"  horiz-adv-x="1024" />

    
    <glyph glyph-name="dasan-" unicode="&#58893;" d="M634.0608 70.86080000000004h-68.1984c-13.9264 0-25.1904 11.264-25.1904 25.1904s11.264 25.1904 25.1904 25.1904h67.584c13.9264 0 25.6-11.264 25.6-25.1904s-11.0592-25.1904-24.9856-25.1904z m-180.224 0h-60.416c-13.9264 0-25.1904 11.264-25.1904 25.1904s11.264 25.1904 25.1904 25.1904h60.416c13.9264 0 25.1904-11.264 25.1904-25.1904s-11.264-25.1904-25.1904-25.1904z m-165.0688 0h-26.4192c-39.3216 0-71.2704 31.9488-71.2704 71.2704v12.0832c0 13.9264 11.264 25.1904 25.1904 25.1904s25.1904-11.264 25.1904-25.1904v-12.0832c0-11.4688 9.4208-20.8896 20.8896-20.8896H288.768c13.9264 0 25.1904-11.264 25.1904-25.1904s-11.264-25.1904-25.1904-25.1904z m-72.4992 169.984c-13.9264 0-25.1904 11.264-25.1904 25.1904v53.248c0 13.9264 11.264 25.1904 25.1904 25.1904s25.1904-11.264 25.1904-25.1904v-53.248c0-13.9264-11.264-25.1904-25.1904-25.1904z m0 165.2736c-13.9264 0-25.1904 11.264-25.1904 25.1904v53.248c0 13.9264 11.264 25.1904 25.1904 25.1904s25.1904-11.264 25.1904-25.1904v-53.248c0-13.9264-11.264-25.1904-25.1904-25.1904zM742.6048 697.1392H412.0576c-49.7664 0-90.3168-40.5504-90.3168-90.3168v-330.752c0-49.7664 40.5504-90.3168 90.3168-90.3168h330.752c49.7664 0 90.3168 40.5504 90.3168 90.3168V606.8224c0 49.7664-40.7552 90.3168-90.5216 90.3168z"  horiz-adv-x="1024" />

    
    <glyph glyph-name="tuceng-" unicode="&#58889;" d="M769.8432 551.7312h-90.3168V642.048c0 48.7424-39.5264 88.2688-88.2688 88.2688H254.1568C205.4144 730.112 165.888 690.5856 165.888 641.8432v-337.3056c0-48.7424 39.5264-88.2688 88.2688-88.2688h90.3168V125.952c0-48.7424 39.5264-88.2688 88.2688-88.2688H770.048c48.7424 0 88.2688 39.5264 88.2688 88.2688V463.4624c-0.2048 48.7424-39.7312 88.2688-88.4736 88.2688z m30.5152-425.5744c0-16.7936-13.7216-30.5152-30.5152-30.5152H432.5376c-16.7936 0-30.5152 13.7216-30.5152 30.5152v90.3168h189.44c48.7424 0 88.2688 39.5264 88.2688 88.2688v189.44H770.048c16.7936 0 30.5152-13.7216 30.5152-30.5152v-337.5104z"  horiz-adv-x="1024" />

    


  </font>
</defs>
</svg>
